<?xml version="1.0" encoding="UTF-8" standalone="no"?>
<!-- Created with Inkscape (http://www.inkscape.org/) -->

<svg
   xmlns:dc="http://purl.org/dc/elements/1.1/"
   xmlns:cc="http://creativecommons.org/ns#"
   xmlns:rdf="http://www.w3.org/1999/02/22-rdf-syntax-ns#"
   xmlns:svg="http://www.w3.org/2000/svg"
   xmlns="http://www.w3.org/2000/svg"
   xmlns:sodipodi="http://sodipodi.sourceforge.net/DTD/sodipodi-0.dtd"
   xmlns:inkscape="http://www.inkscape.org/namespaces/inkscape"
   version="1.1"
   id="svg2"
   xml:space="preserve"
   width="483.07999"
   height="122.30667"
   viewBox="0 0 483.07999 122.30667"
   sodipodi:docname="SU-UTC18-contoursNB.svg"
   inkscape:version="0.92.3 (2405546, 2018-03-11)"><metadata
     id="metadata8"><rdf:RDF><cc:Work
         rdf:about=""><dc:format>image/svg+xml</dc:format><dc:type
           rdf:resource="http://purl.org/dc/dcmitype/StillImage" /><dc:title></dc:title></cc:Work></rdf:RDF></metadata><defs
     id="defs6" /><sodipodi:namedview
     pagecolor="#ffffff"
     bordercolor="#666666"
     borderopacity="1"
     objecttolerance="10"
     gridtolerance="10"
     guidetolerance="10"
     inkscape:pageopacity="0"
     inkscape:pageshadow="2"
     inkscape:window-width="1920"
     inkscape:window-height="1053"
     id="namedview4"
     showgrid="false"
     inkscape:zoom="2.0785204"
     inkscape:cx="191.53834"
     inkscape:cy="51.653929"
     inkscape:window-x="0"
     inkscape:window-y="27"
     inkscape:window-maximized="1"
     inkscape:current-layer="g10" /><g
     id="g10"
     inkscape:groupmode="layer"
     inkscape:label="ink_ext_XXXXXX"
     transform="matrix(1.3333333,0,0,-1.3333333,0,122.30667)"><g
       id="g12"
       transform="scale(0.1)"><path
         d="m 315.832,745.449 h 17.852 v 39.149 c 0,4.929 -4,8.918 -8.926,8.918 -4.926,0 -8.926,-3.989 -8.926,-8.918 v -39.149"
         style="fill:#231f20;fill-opacity:1;fill-rule:nonzero;stroke:none"
         id="path14"
         inkscape:connector-curvature="0" /><path
         d="m 278.242,745.449 h 17.856 v 39.149 c 0,4.929 -4,8.918 -8.934,8.918 -4.926,0 -8.922,-3.989 -8.922,-8.918 v -39.149"
         style="fill:#231f20;fill-opacity:1;fill-rule:nonzero;stroke:none"
         id="path16"
         inkscape:connector-curvature="0" /><path
         d="m 353.426,745.449 h 17.851 v 39.149 c 0,4.929 -3.996,8.918 -8.925,8.918 -4.926,0 -8.926,-3.989 -8.926,-8.918 v -39.149"
         style="fill:#231f20;fill-opacity:1;fill-rule:nonzero;stroke:none"
         id="path18"
         inkscape:connector-curvature="0" /><path
         d="m 329.223,889.594 c 11.879,-2.11 16.343,-12.555 16.343,-19.832 v -15.207 h 10.887 v -8.614 c 28.457,-13.375 48.649,-43.203 48.649,-73.785 0,-0.203 -0.008,-0.394 -0.008,-0.586 v -26.215 h 65.828 v 26.801 c -1.406,86.367 -62.871,139.102 -144.039,140.172 l 2.34,-22.734"
         style="fill:#231f20;fill-opacity:1;fill-rule:nonzero;stroke:none"
         id="path20"
         inkscape:connector-curvature="0" /><path
         d="m 316.773,870.25 v -15.691 h 16.024 v 15.691 c 0,4.422 -3.586,8.012 -8.012,8.012 -4.426,0 -8.012,-3.59 -8.012,-8.012"
         style="fill:#231f20;fill-opacity:1;fill-rule:nonzero;stroke:none"
         id="path22"
         inkscape:connector-curvature="0" /><path
         d="m 336.859,703.27 c -67.941,17.363 -93.332,32.175 -93.332,75.234 0,30.906 20.61,57.492 49.539,68.863 v 7.192 h 10.942 v 15.203 c 0,7.386 4.578,18 16.812,19.906 l 2.231,22.68 c -81.817,-0.629 -151.43,-57.457 -148.086,-133.844 3.726,-85.5 97.469,-109.461 147.976,-120.195 39.731,-8.438 135.348,-30.821 159.047,-98.168 0,0 8.864,111.445 -145.129,143.129"
         style="fill:#231f20;fill-opacity:1;fill-rule:nonzero;stroke:none"
         id="path24"
         inkscape:connector-curvature="0" /><path
         d="m 314.27,584.574 c 68.503,-20.883 86.046,-46.289 86.046,-82.371 0,-55.012 -42.597,-77.609 -96.078,-77.609 -51.199,0 -95.226,23.879 -124.504,54.828 -0.14,0.148 -10.906,-22.586 -10.906,-22.586 21.539,-40.719 82.098,-77.789 149.68,-77.789 h 0.082 0.09 c 86.562,-0.723 160.172,39.805 160.172,121.422 0,87.633 -95.497,121.929 -148.493,133.707 -41.695,9.269 -146.914,36.965 -165.636,95.765 0,0 -20.883,-101.929 149.547,-145.367"
         style="fill:#231f20;fill-opacity:1;fill-rule:nonzero;stroke:none"
         id="path26"
         inkscape:connector-curvature="0" /><path
         d="m 34.2305,274.73 c 0,0 -1.7266,-7.234 -3.2305,-11.367 l -6.8086,-19.636 h 20.082 l -6.8046,19.636 c -1.3985,4.133 -3.0196,11.367 -3.0196,11.367 z m 13.5,-41.863 H 20.8438 L 14.3633,214.059 H 0.00390625 L 26.9961,287.445 H 41.5742 L 68.5781,214.059 H 54.2109 l -6.4804,18.808"
         style="fill:#231f20;fill-opacity:1;fill-rule:nonzero;stroke:none"
         id="path28"
         inkscape:connector-curvature="0" /><path
         d="m 99.418,287.445 h 13.93 v -61.914 h 33.16 v -11.472 h -47.09 v 73.386"
         style="fill:#231f20;fill-opacity:1;fill-rule:nonzero;stroke:none"
         id="path30"
         inkscape:connector-curvature="0" /><path
         d="m 178.637,287.445 h 13.933 v -61.914 h 33.149 v -11.472 h -47.082 v 73.386"
         style="fill:#231f20;fill-opacity:1;fill-rule:nonzero;stroke:none"
         id="path32"
         inkscape:connector-curvature="0" /><path
         d="m 257.855,287.445 h 13.922 v -73.386 h -13.922 v 73.386"
         style="fill:#231f20;fill-opacity:1;fill-rule:nonzero;stroke:none"
         id="path34"
         inkscape:connector-curvature="0" /><path
         d="m 336.859,274.73 c 0,0 -1.73,-7.234 -3.238,-11.367 l -6.808,-19.636 h 20.085 l -6.808,19.636 c -1.399,4.133 -3.02,11.367 -3.02,11.367 z m 13.5,-41.863 h -26.894 l -6.481,-18.808 h -14.359 l 27,73.386 h 14.582 l 26.996,-73.386 h -14.371 l -6.473,18.808"
         style="fill:#231f20;fill-opacity:1;fill-rule:nonzero;stroke:none"
         id="path36"
         inkscape:connector-curvature="0" /><path
         d="m 402.043,287.445 h 13.926 l 29.054,-42.371 c 2.918,-4.25 6.368,-11.379 6.368,-11.379 h 0.218 c 0,0 -0.757,7.032 -0.757,11.379 v 42.371 h 13.824 v -73.386 h -13.824 l -29.051,42.285 c -2.918,4.226 -6.367,11.355 -6.367,11.355 h -0.223 c 0,0 0.758,-7.031 0.758,-11.355 v -42.285 h -13.926 v 73.386"
         style="fill:#231f20;fill-opacity:1;fill-rule:nonzero;stroke:none"
         id="path38"
         inkscape:connector-curvature="0" /><path
         d="m 539.262,288.688 c 18.679,0 28.289,-10.02 28.289,-10.02 l -6.696,-9.922 c 0,0 -8.746,7.754 -20.953,7.754 -16.195,0 -25.703,-11.582 -25.703,-25.227 0,-13.953 9.832,-26.25 25.813,-26.25 13.285,0 22.246,9.297 22.246,9.297 l 7.344,-9.609 c 0,0 -10.582,-11.895 -30.125,-11.895 -23.442,0 -39.641,16.653 -39.641,38.243 0,21.3 16.848,37.629 39.426,37.629"
         style="fill:#231f20;fill-opacity:1;fill-rule:nonzero;stroke:none"
         id="path40"
         inkscape:connector-curvature="0" /><path
         d="m 603.465,287.445 h 45.902 v -11.472 h -31.972 v -19.219 h 25.816 v -11.477 h -25.816 v -19.746 h 33.703 v -11.472 h -47.633 v 73.386"
         style="fill:#231f20;fill-opacity:1;fill-rule:nonzero;stroke:none"
         id="path42"
         inkscape:connector-curvature="0" /><path
         d="m 8.91797,126.703 c 0,0 8.27343,-7.734 19.01953,-7.734 5.8008,0 11.0703,2.883 11.0703,8.859 0,13.113 -35.99608,10.84 -35.99608,33.328 0,12.188 10.96098,21.25 25.57028,21.25 15.043,0 22.7813,-7.832 22.7813,-7.832 l -6.0156,-10.828 c 0,0 -7.3125,6.387 -16.875,6.387 -6.4454,0 -11.4961,-3.606 -11.4961,-8.762 0,-13.008 35.8906,-9.812 35.8906,-33.23 0,-11.653 -9.2422,-21.465 -25.1406,-21.465 -16.9766,0 -26.32816,10.019 -26.32816,10.019 l 7.51953,10.008"
         style="fill:#231f20;fill-opacity:1;fill-rule:nonzero;stroke:none"
         id="path44"
         inkscape:connector-curvature="0" /><path
         d="m 111.52,182.418 c 22.46,0 39.433,-16.406 39.433,-37.355 0,-21.563 -16.973,-38.379 -39.433,-38.379 -22.4497,0 -39.4341,16.816 -39.4341,38.379 0,20.949 16.9844,37.355 39.4341,37.355 m 0,-63.555 c 13.976,0 25.148,11.133 25.148,26.2 0,14.445 -11.172,25.175 -25.148,25.175 -13.9692,0 -25.1372,-10.73 -25.1372,-25.175 0,-15.067 11.168,-26.2 25.1372,-26.2"
         style="fill:#231f20;fill-opacity:1;fill-rule:nonzero;stroke:none"
         id="path46"
         inkscape:connector-curvature="0" /><path
         d="m 173.23,181.176 h 24.61 c 8.265,0 12.023,-0.613 15.355,-2.059 7.633,-3.301 12.473,-10.324 12.473,-20.031 0,-8.758 -4.84,-16.914 -12.898,-20.008 v -0.207 c 0,0 1.074,-1.023 2.578,-3.613 l 15.687,-27.332 H 215.563 L 200.41,135.258 H 187.086 V 107.926 H 173.23 Z m 26.325,-34.363 c 7.414,0 12.035,4.238 12.035,11.562 0,7.02 -3.117,11.355 -13.973,11.355 h -10.531 v -22.917 h 12.469"
         style="fill:#231f20;fill-opacity:1;fill-rule:nonzero;stroke:none"
         id="path48"
         inkscape:connector-curvature="0" /><path
         d="m 250.719,181.176 h 27.285 c 13.762,0 23.531,-6.817 23.531,-18.887 0,-6.805 -3.433,-12.684 -9.234,-15.684 v -0.203 c 8.379,-2.363 12.355,-9.797 12.355,-17.226 0,-14.649 -12.254,-21.25 -26.328,-21.25 h -27.609 z m 27.285,-29.922 c 6.019,0 9.465,4.133 9.465,9.387 0,5.261 -3.223,9.089 -9.68,9.089 h -13.211 v -18.476 z m 1.406,-31.883 c 7.086,0 11.063,4.442 11.063,10.633 0,6.086 -4.078,10.519 -11.063,10.519 h -14.832 v -21.152 h 14.832"
         style="fill:#231f20;fill-opacity:1;fill-rule:nonzero;stroke:none"
         id="path50"
         inkscape:connector-curvature="0" /><path
         d="m 362.059,182.418 c 22.464,0 39.433,-16.406 39.433,-37.355 0,-21.563 -16.969,-38.379 -39.433,-38.379 -22.457,0 -39.43,16.816 -39.43,38.379 0,20.949 16.973,37.355 39.43,37.355 m 0,-63.555 c 13.968,0 25.14,11.133 25.14,26.2 0,14.445 -11.172,25.175 -25.14,25.175 -13.965,0 -25.141,-10.73 -25.141,-25.175 0,-15.067 11.176,-26.2 25.141,-26.2"
         style="fill:#231f20;fill-opacity:1;fill-rule:nonzero;stroke:none"
         id="path52"
         inkscape:connector-curvature="0" /><path
         d="m 425.164,181.176 h 13.856 l 28.914,-42.305 c 2.898,-4.226 6.332,-11.348 6.332,-11.348 h 0.218 c 0,0 -0.746,7.012 -0.746,11.348 v 42.305 h 13.75 v -73.25 h -13.75 l -28.906,42.187 c -2.906,4.239 -6.348,11.356 -6.348,11.356 h -0.211 c 0,0 0.747,-7.012 0.747,-11.356 v -42.187 h -13.856 v 73.25"
         style="fill:#231f20;fill-opacity:1;fill-rule:nonzero;stroke:none"
         id="path54"
         inkscape:connector-curvature="0" /><path
         d="m 515.027,181.176 h 13.864 l 28.898,-42.305 c 2.891,-4.226 6.344,-11.348 6.344,-11.348 h 0.211 c 0,0 -0.746,7.012 -0.746,11.348 v 42.305 h 13.75 v -73.25 h -13.75 l -28.914,42.187 c -2.907,4.239 -6.332,11.356 -6.332,11.356 h -0.219 c 0,0 0.758,-7.012 0.758,-11.356 v -42.187 h -13.864 v 73.25"
         style="fill:#231f20;fill-opacity:1;fill-rule:nonzero;stroke:none"
         id="path56"
         inkscape:connector-curvature="0" /><path
         d="m 605.004,181.176 v -73.262 h 47.383 v 11.457 h -33.52 v 19.707 h 25.664 v 11.445 h -25.664 v 19.207 h 31.805 v 11.446 h -45.668"
         style="fill:#231f20;fill-opacity:1;fill-rule:nonzero;stroke:none"
         id="path58"
         inkscape:connector-curvature="0" /><path
         d="M 2.76563,75.8164 H 16.7539 v -47.375 c 0,-9.8906 6.7188,-15.5156 17.0313,-15.5156 10.2929,0 17.1289,5.625 17.1289,15.625 V 75.8164 H 64.8984 V 28.4414 C 64.8984,11.8711 52.4336,0.628906 33.8906,0.628906 15.2305,0.628906 2.76563,11.8711 2.76563,28.4414 v 47.375"
         style="fill:#231f20;fill-opacity:1;fill-rule:nonzero;stroke:none"
         id="path60"
         inkscape:connector-curvature="0" /><path
         d="m 87.9727,75.0039 h 13.8553 l 28.906,-42.3047 c 2.895,-4.2265 6.336,-11.3359 6.336,-11.3359 h 0.211 c 0,0 -0.746,7 -0.746,11.3359 v 42.3047 h 13.75 V 1.75391 h -13.75 L 107.629,43.9414 c -2.899,4.2461 -6.34,11.3555 -6.34,11.3555 h -0.219 c 0,0 0.758,-7.0117 0.758,-11.3555 V 1.75391 H 87.9727 V 75.0039"
         style="fill:#231f20;fill-opacity:1;fill-rule:nonzero;stroke:none"
         id="path62"
         inkscape:connector-curvature="0" /><path
         d="m 175.008,75.0039 h 13.859 V 1.76172 H 175.008 V 75.0039"
         style="fill:#231f20;fill-opacity:1;fill-rule:nonzero;stroke:none"
         id="path64"
         inkscape:connector-curvature="0" /><path
         d="m 203.813,75.0039 h 14.941 l 16.75,-47.7617 c 1.504,-4.2383 2.801,-10.7344 2.801,-10.7344 h 0.324 c 0,0 1.394,6.4961 2.891,10.7344 l 16.875,47.7617 h 14.832 L 245.395,1.75391 h -13.75 L 203.813,75.0039"
         style="fill:#231f20;fill-opacity:1;fill-rule:nonzero;stroke:none"
         id="path66"
         inkscape:connector-curvature="0" /><path
         d="m 288.168,75.0039 h 45.668 V 63.5508 H 302.027 V 44.3711 h 25.68 V 32.9063 h -25.68 V 13.1992 h 33.528 V 1.75391 H 288.168 V 75.0039"
         style="fill:#231f20;fill-opacity:1;fill-rule:nonzero;stroke:none"
         id="path68"
         inkscape:connector-curvature="0" /><path
         d="m 355.328,75.0039 h 24.606 c 8.269,0 12.035,-0.6133 15.367,-2.0586 7.633,-3.3008 12.469,-10.3242 12.469,-20.0195 0,-8.7695 -4.836,-16.9258 -12.895,-20.0195 v -0.2071 c 0,0 1.074,-1.0234 2.578,-3.6015 L 413.137,1.75391 H 397.668 L 382.508,29.0977 H 369.191 V 1.75391 H 355.328 Z M 381.66,40.6406 c 7.414,0 12.028,4.2383 12.028,11.5625 0,7.0196 -3.114,11.3477 -13.965,11.3477 H 369.191 V 40.6406 h 12.469"
         style="fill:#231f20;fill-opacity:1;fill-rule:nonzero;stroke:none"
         id="path70"
         inkscape:connector-curvature="0" /><path
         d="m 433.133,20.5313 c 0,0 8.273,-7.7344 19.023,-7.7344 5.793,0 11.059,2.8828 11.059,8.8672 0,13.1054 -35.992,10.832 -35.992,33.3203 0,12.1875 10.957,21.25 25.574,21.25 15.043,0 22.785,-7.8321 22.785,-7.8321 l -6.023,-10.8281 c 0,0 -7.313,6.3867 -16.871,6.3867 -6.446,0 -11.5,-3.6054 -11.5,-8.7617 0,-13.0078 35.894,-9.8047 35.894,-33.2226 0,-11.6485 -9.242,-21.472694 -25.144,-21.472694 -16.973,0 -26.325,10.019494 -26.325,10.019494 l 7.52,10.0079"
         style="fill:#231f20;fill-opacity:1;fill-rule:nonzero;stroke:none"
         id="path72"
         inkscape:connector-curvature="0" /><path
         d="m 496.316,75.0039 h 13.868 V 1.76172 H 496.316 V 75.0039"
         style="fill:#231f20;fill-opacity:1;fill-rule:nonzero;stroke:none"
         id="path74"
         inkscape:connector-curvature="0" /><path
         d="m 550.695,63.5508 h -25.039 v 11.4531 h 63.938 V 63.5508 H 564.547 V 1.76172 H 550.695 V 63.5508"
         style="fill:#231f20;fill-opacity:1;fill-rule:nonzero;stroke:none"
         id="path76"
         inkscape:connector-curvature="0" /><path
         d="m 631.293,93.8906 -8.172,-14.0429 h 10.965 l 11.281,14.0429 z M 605.074,75.0156 V 1.74219 h 47.383 V 13.1992 h -33.523 v 19.7071 h 25.675 v 11.4531 h -25.675 v 19.1992 h 31.8 v 11.457 h -45.66"
         style="fill:#231f20;fill-opacity:1;fill-rule:nonzero;stroke:none"
         id="path78"
         inkscape:connector-curvature="0" /><path
         d="M 919.809,911.852 792.902,8.89063"
         style="fill:none;stroke:#4f4c4c;stroke-width:10;stroke-linecap:butt;stroke-linejoin:miter;stroke-miterlimit:4;stroke-dasharray:none;stroke-opacity:1"
         id="path80"
         inkscape:connector-curvature="0" /><path
         d="m 2755.52,576.18 h -90.37 V 228.102 c 0,-86.438 -46.35,-135.9965 -127.11,-135.9965 -79.81,0 -123.76,48.3085 -123.76,135.9965 V 576.18 H 2313.77 V 215.863 c 0,-69.082 19.81,-123.2888 58.86,-161.238 35.38,-35.3516 86.81,-54.09375 148.66,-54.09375 55.99,0 106.09,20.01175 144.95,55.21485 0,-17.9883 0,-48.56251 0,-48.56251 h 99.41 V 576.18 h -10.13"
         style="fill:#231f20;fill-opacity:1;fill-rule:nonzero;stroke:none"
         id="path82"
         inkscape:connector-curvature="0" /><path
         d="m 2994.25,744.691 h -90.43 c 0,0 0,-153.921 0,-171.836 -14.74,0 -69.14,0 -69.14,0 v -81.539 c 0,0 54.4,0 69.14,0 0,-19.015 0,-326.808 0,-326.808 0,-95.5471 59.16,-157.32441 150.7,-157.32441 h 67 V 96.5078 h -52.53 c -43.44,0 -64.61,23.0002 -64.61,70.2542 0,0 0,305.539 0,324.554 16.84,0 117.14,0 117.14,0 v 81.539 c 0,0 -100.3,0 -117.14,0 0,17.915 0,171.836 0,171.836 h -10.13"
         style="fill:#231f20;fill-opacity:1;fill-rule:nonzero;stroke:none"
         id="path84"
         inkscape:connector-curvature="0" /><path
         d="m 3174.89,291.684 c 0,-179.571 97.1,-291.15275 253.26,-291.15275 79.92,0 130.9,22.91015 188.12,84.60155 l 6.81,7.2461 -69.42,66.5621 -6.9,-7.726 c -39.89,-44.207 -69.88,-59.1095 -118.61,-59.1095 -51.09,0 -92.17,20.1445 -118.92,58.1835 -24.03,33.484 -33.8,74.414 -33.8,141.395 0,67.043 9.77,107.921 33.79,141.367 26.81,38.129 67.84,58.265 118.93,58.265 49.46,0 79.39,-14.679 118.61,-58.039 l 6.82,-7.617 69.5,65.235 -6.81,7.355 c -57.22,61.699 -108.2,84.719 -188.12,84.719 -156.16,0 -253.26,-111.621 -253.26,-291.285"
         style="fill:#231f20;fill-opacity:1;fill-rule:nonzero;stroke:none"
         id="path86"
         inkscape:connector-curvature="0" /><path
         d="M 1156.15,343.402 V 5.00391 h 907.34 V 564.418 C 1767.85,513.551 1613.21,443.168 1345.35,303.805 Z"
         style="fill:none;stroke:#231f20;stroke-width:10;stroke-linecap:butt;stroke-linejoin:miter;stroke-miterlimit:4;stroke-dasharray:none;stroke-opacity:1"
         id="path88"
         inkscape:connector-curvature="0" /><path
         d="M 2063.49,912.348 H 1156.15 V 514.492 c 301.24,109.324 622.28,178.696 907.34,201.121 z"
         style="fill:none;stroke:#231f20;stroke-width:10;stroke-linecap:butt;stroke-linejoin:miter;stroke-miterlimit:4;stroke-dasharray:none;stroke-opacity:1"
         id="path90"
         inkscape:connector-curvature="0" /><path
         d="m 2063.49,725.465 c -285.06,-22.422 -606.1,-91.797 -907.34,-201.121 -57.29,-20.785 -113.87,-42.973 -169.345,-66.59 l 358.545,-87.047 c 290,150.859 470.24,219.523 817.42,273.043 v 87.691 c -32.53,-1.324 -65.67,-3.339 -99.28,-5.976"
         style="fill:#231f20;fill-opacity:1;fill-rule:nonzero;stroke:none"
         id="path92"
         inkscape:connector-curvature="0" /></g></g></svg>